<svg xmlns="http://www.w3.org/2000/svg" width="20" height="16" viewBox="0 0 20 16">
  <path id="Dashboard" d="M17.713,15.709a.847.847,0,0,1-.642.291H2.929a.848.848,0,0,1-.643-.291A9.33,9.33,0,0,1,0,9.608V9.591A9.381,9.381,0,0,1,2.927,2.814l0,0,0,0A10.18,10.18,0,0,1,10,0h0A9.806,9.806,0,0,1,20,9.6,9.33,9.33,0,0,1,17.713,15.709ZM16.452,4.537l-.56.537a.856.856,0,0,1-1.178,0,.776.776,0,0,1,0-1.131l.559-.537a8.47,8.47,0,0,0-4.44-1.766V4A.834.834,0,0,1,9.166,4V1.64a8.473,8.473,0,0,0-4.44,1.766l.56.537a.778.778,0,0,1,0,1.131.858.858,0,0,1-1.179,0l-.559-.537A7.808,7.808,0,0,0,1.708,8.8H4.167a.8.8,0,1,1,0,1.6H1.708a7.763,7.763,0,0,0,1.625,4H16.667a7.767,7.767,0,0,0,1.625-4H15.833a.8.8,0,1,1,0-1.6h2.459A7.8,7.8,0,0,0,16.452,4.537Zm-8.666,4.4L12.5,6.674,10.143,11.2Z" fill="#666" fill-rule="evenodd"/>
</svg>