<svg xmlns="http://www.w3.org/2000/svg" width="12" height="16" viewBox="0 0 12 16">
  <path id="downloads" d="M6.7,11.484a.965.965,0,0,1-.613.263c-.038,0-.063.006-.088.009H6c-.025,0-.05-.007-.076-.009a.959.959,0,0,1-.624-.263L.423,6.772a.906.906,0,0,1,0-1.314A.969.969,0,0,1,1.1,5.187a.97.97,0,0,1,.679.271l3.281,3.17V.9A.94.94,0,0,1,6.939.9V8.628l3.281-3.17a.985.985,0,0,1,1.357,0,.908.908,0,0,1,0,1.314ZM.92,14.191H11.079a.9.9,0,1,1,0,1.809H.92a.9.9,0,1,1,0-1.809Z" fill="#666" fill-rule="evenodd"/>
</svg>
