<svg xmlns="http://www.w3.org/2000/svg" width="15" height="19" viewBox="0 0 15 19">
  <path id="address" d="M14.868,9.1c-.007.046-.026.143-.052.262a7.591,7.591,0,0,1-.5,1.509A21.018,21.018,0,0,1,7.971,18.83a.737.737,0,0,1-.942,0A20.99,20.99,0,0,1,.685,10.868a7.635,7.635,0,0,1-.5-1.509C.159,9.244.14,9.146.132,9.1A7.792,7.792,0,0,1,0,7.664,7.59,7.59,0,0,1,7.5,0,7.6,7.6,0,0,1,15,7.664,8,8,0,0,1,14.868,9.1ZM7.5,1.529a6.072,6.072,0,0,0-6,6.131,6.306,6.306,0,0,0,.109,1.165l0,.023v.005a.146.146,0,0,0,0,.022c0,.026.012.069.027.129l.008.03v.011a6.418,6.418,0,0,0,.388,1.167l0,0,.018.043A18.973,18.973,0,0,0,7.5,17.242a18.976,18.976,0,0,0,5.435-6.983l.019-.046,0,0a6.037,6.037,0,0,0,.387-1.163V9.039l.005-.025c.016-.074.027-.126.031-.152a.084.084,0,0,0,0-.01l0-.024a6.191,6.191,0,0,0,.11-1.168A6.072,6.072,0,0,0,7.5,1.529Zm0,10a3.783,3.783,0,0,1,0-7.565,3.783,3.783,0,0,1,0,7.565Zm0-6.337a2.555,2.555,0,1,0,2.5,2.555A2.529,2.529,0,0,0,7.5,5.191Z" fill="#666" fill-rule="evenodd"/>
</svg>
