<svg xmlns="http://www.w3.org/2000/svg" width="20" height="16" viewBox="0 0 20 16">
  <path id="logout" d="M12.945,16A6.866,6.866,0,0,1,7.1,12.476a.907.907,0,0,1,.2-1.16.661.661,0,0,1,.4-.14.709.709,0,0,1,.6.363,5.451,5.451,0,0,0,4.646,2.8c3.088,0,5.6-2.842,5.6-6.336s-2.512-6.336-5.6-6.336A5.455,5.455,0,0,0,8.291,4.473a.708.708,0,0,1-.6.366.663.663,0,0,1-.4-.14.908.908,0,0,1-.2-1.16A6.868,6.868,0,0,1,12.945,0C16.835,0,20,3.589,20,8S16.835,16,12.945,16ZM2.626,7.168H12.692a.834.834,0,0,1,0,1.664H2.626l1.456,1.575a.878.878,0,0,1,0,1.176.727.727,0,0,1-1.087,0L.225,8.589C.207,8.569.19,8.548.174,8.527L.16,8.507.13,8.463.123,8.449a.453.453,0,0,1-.031-.056l-.005-.01A.679.679,0,0,1,.059,8.32l0-.01C.048,8.288.04,8.265.033,8.242l0-.01a.637.637,0,0,1-.016-.069l0-.022V8.134c0-.017,0-.033-.007-.05A.8.8,0,0,1,0,8a.738.738,0,0,1,0-.082c0-.021,0-.04.008-.059l0-.021c0-.025.01-.048.016-.072l0-.01c.008-.026.015-.047.022-.068l0-.009,0,.008,0-.009h0c.009-.023.017-.04.025-.058a.061.061,0,0,0,.007-.014.381.381,0,0,1,.029-.052L.13,7.538A.407.407,0,0,1,.163,7.49l.013-.02c.015-.019.032-.039.05-.059L2.995,4.417a.727.727,0,0,1,1.087,0,.878.878,0,0,1,0,1.176Z" fill="#666" fill-rule="evenodd"/>
</svg>
