<svg xmlns="http://www.w3.org/2000/svg" width="18" height="20" viewBox="0 0 18 20">
  <path id="Orders" d="M17.311,14.626l-4.3,4.272a.786.786,0,0,1-.345.2L9.5,19.972a.792.792,0,0,1-.21.028.784.784,0,0,1-.561-.236.776.776,0,0,1-.189-.772l.938-3.076a.78.78,0,0,1,.2-.326l4.307-4.279a2.363,2.363,0,0,1,3.328,0A2.339,2.339,0,0,1,17.311,14.626ZM13.83,13.67l-2.906,2.888-.466,1.529,1.593-.44,2.889-2.872ZM16.2,12.416a.789.789,0,0,0-1.11,0l-.151.151,1.109,1.1.152-.151A.78.78,0,0,0,16.2,12.416ZM8.826,12.5H3.918a.782.782,0,1,1,0-1.563H8.826a.782.782,0,1,1,0,1.563ZM12,6.25H3.918a.782.782,0,1,1,0-1.563H12A.782.782,0,1,1,12,6.25Zm0,3.125H3.918a.782.782,0,1,1,0-1.563H12a.782.782,0,1,1,0,1.563Zm3.138-.664a.783.783,0,0,1-.784-.781v-4.8a1.568,1.568,0,0,0-1.569-1.563H3.138A1.568,1.568,0,0,0,1.569,3.125v13.75a1.568,1.568,0,0,0,1.569,1.562H5.762a.782.782,0,1,1,0,1.563H3.138A3.135,3.135,0,0,1,0,16.875V3.125A3.135,3.135,0,0,1,3.138,0h9.646a3.135,3.135,0,0,1,3.138,3.125v4.8A.784.784,0,0,1,15.137,8.711Z" fill="#666" fill-rule="evenodd"/>
</svg>