<svg xmlns="http://www.w3.org/2000/svg" width="161.999" height="135" viewBox="0 0 161.999 135">
  <path id="quote-watermark" d="M102.512,135c-8.719,0-15.818-6.618-15.818-14.746v-9.426a3.172,3.172,0,0,1,6.328,0v9.426c0,4.878,4.258,8.846,9.49,8.846h43.664c5.238,0,9.5-3.968,9.5-8.846V84.9c0-4.878-4.258-8.84-9.5-8.84H122.495a3.065,3.065,0,0,1-3.16-2.953c0-13.309,2.736-23.744,8.13-31.028,5.081-6.855,12.526-11.035,22.151-12.426V6.117c-38.073,3.177-56.594,25.781-56.594,69V85.674a3.171,3.171,0,0,1-6.328,0V75.12c0-23.546,5.532-41.825,16.438-54.336C114.155,8.141,130.8,1.147,152.6,0h.177a3.282,3.282,0,0,1,2.175.811,2.839,2.839,0,0,1,.993,2.142V32.26a3.037,3.037,0,0,1-2.88,2.933c-17.666,1.49-26.638,12.94-27.357,34.963h20.467C154.9,70.156,162,76.768,162,84.9v35.358c0,8.128-7.1,14.746-15.823,14.746Zm-86.7,0C7.092,135,0,128.382,0,120.254V75.12C0,51.574,5.525,33.3,16.437,20.784,27.461,8.141,44.1,1.147,65.907,0h.177a3.307,3.307,0,0,1,2.175.811,2.832,2.832,0,0,1,.986,2.142V32.26a3.036,3.036,0,0,1-2.873,2.933C48.7,36.683,39.732,48.133,39.014,70.156H59.481c8.725,0,15.824,6.612,15.824,14.739v35.358c0,8.128-7.1,14.746-15.824,14.746Zm5.7-27.719V129.1H59.481c5.238,0,9.5-3.968,9.5-8.846V84.9c0-4.878-4.258-8.84-9.5-8.84H35.8A3.066,3.066,0,0,1,32.64,73.1c0-13.315,2.737-23.75,8.131-31.028C45.852,35.22,53.3,31.041,62.916,29.65V6.117C24.849,9.294,6.328,31.9,6.328,75.12v45.134c0,4.68,3.918,8.523,8.856,8.82V107.281a3.062,3.062,0,0,1,3.167-2.947A3.061,3.061,0,0,1,21.512,107.281Zm65.182-9.031v-.059a3.173,3.173,0,0,1,6.328,0v.059a3.171,3.171,0,0,1-6.328,0Zm-71.51-1.187v-.026a3.067,3.067,0,0,1,3.167-2.953,2.963,2.963,0,1,1,0,5.913A3.051,3.051,0,0,1,15.184,97.064Z" transform="translate(161.999 135) rotate(180)" fill="#393e5c" opacity="0.03"/>
</svg>
